<svg version="1.0" xmlns="http://www.w3.org/2000/svg" xmlns:xlink="http://www.w3.org/1999/xlink" x="0px" y="0px"
	 viewBox="0 0 512 512" style="enable-background:new 0 0 512 512;" xml:space="preserve">
	<path d="M213.3,465.1c-1.1-0.3-2.1-0.9-3-1.7c1.3,1.4,2,3.2,2.1,5C212.4,467.2,212.7,466.1,213.3,465.1z"/>
	<path d="M291.2,27.2c0.9-0.8,1.9-1.4,3-1.7c-0.6-1-0.9-2.1-1-3.2C293.2,24.1,292.5,25.8,291.2,27.2z"/>
	<path d="M169.1,511.7c0-1.1,0.4-2.2,1-3.2c-1.1-0.3-2.1-0.9-3-1.7C168.4,508.1,169,509.9,169.1,511.7z"/>
	<path d="M180.9,497.6c-1.1-0.3-2.1-0.9-3-1.7c1.3,1.4,2,3.2,2.1,5C180,499.7,180.3,498.6,180.9,497.6z"/>
	<path d="M179.9,501.4c-0.1,1.5-0.6,3.1-1.6,4.3c0.8,0.3,1.6,0.8,2.2,1.5c1.3,1.3,2,3,2,4.8c0,0,0,0,0,0h1.9c0,0,0,0,0,0
		c0-1.5,0.6-3,1.7-4.1c0,0,0.1,0,0.1-0.1c-1.6-0.1-3.1-0.7-4.3-1.9C180.6,504.6,180,503,179.9,501.4z"/>
	<path d="M312.8,48.9c0.9-0.8,1.9-1.4,3-1.7c-0.6-1-0.9-2.1-1-3.2C314.8,45.7,314.1,47.5,312.8,48.9z"/>
	<path d="M191.7,486.8c-1.1-0.3-2.1-0.9-3-1.7c1.3,1.4,2,3.2,2.1,5C190.8,488.9,191.1,487.8,191.7,486.8z"/>
	<path d="M282.5,11.4c-0.1,1.8-0.7,3.6-2.1,5c0.9-0.8,1.9-1.4,3-1.7C282.8,13.7,282.5,12.6,282.5,11.4z"/>
	<path d="M284.4,6.4c1.2-1.2,2.7-1.8,4.3-1.9c0,0-0.1,0-0.1-0.1c-1.1-1.1-1.7-2.6-1.7-4.1c0-0.1,0-0.2,0-0.3H285c0,0.1,0,0.2,0,0.3
		c0,1.7-0.7,3.4-2,4.8c-0.6,0.6-1.4,1.1-2.2,1.5c1,1.3,1.5,2.8,1.6,4.3C282.5,9.2,283.2,7.6,284.4,6.4z"/>
	<path d="M302,38.1c0.9-0.8,1.9-1.4,3-1.7c-0.6-1-0.9-2.1-1-3.2C304,34.9,303.3,36.7,302,38.1z"/>
	<path d="M271.7,0L271.7,0C271.6,0,271.6,0,271.7,0C271.6,0,271.7,0,271.7,0z"/>
	<path d="M271.6,0.6c-0.1,1.8-0.8,3.6-2.1,5c0.9-0.8,1.9-1.4,3-1.7C272,2.8,271.7,1.7,271.6,0.6z"/>
	<path d="M202.5,475.9c-1.1-0.3-2.1-0.9-3-1.7c1.3,1.4,2,3.2,2.1,5C201.6,478,201.9,476.9,202.5,475.9z"/>
	<path d="M365.3,0c0,0.1,0.1,0.2,0.1,0.3c0,0.2-0.1,0.5-0.3,0.7c-0.2,0.2-0.4,0.3-0.7,0.3c-0.2,0-0.5-0.1-0.7-0.3s-0.3-0.4-0.3-0.7
		c0-0.1,0.1-0.2,0.1-0.3H352c0,0.1,0.1,0.2,0.1,0.3c0,0.5-0.2,1-0.6,1.4c-0.4,0.4-0.9,0.6-1.4,0.6c-0.5,0-1-0.2-1.4-0.6
		c-0.4-0.4-0.6-0.9-0.6-1.4c0-0.1,0-0.2,0.1-0.3h-9.6c0,0.1,0.1,0.2,0.1,0.3c0,0.7-0.3,1.5-0.9,2c-0.6,0.6-1.3,0.9-2,0.9
		c-0.7,0-1.5-0.3-2-0.9c-0.6-0.6-0.9-1.3-0.9-2c0-0.1,0-0.2,0.1-0.3h-7.7c0,0.1,0.1,0.2,0.1,0.3c0,1-0.4,2-1.1,2.7
		c-0.7,0.7-1.7,1.1-2.7,1.1s-2-0.4-2.7-1.1c-0.7-0.7-1.1-1.7-1.1-2.7c0-0.1,0.1-0.2,0.1-0.3h-5.8c0,0.1,0.1,0.2,0.1,0.3
		c0,1.2-0.5,2.5-1.4,3.4c-0.9,0.9-2.2,1.4-3.4,1.4c-1.2,0-2.5-0.5-3.4-1.4s-1.4-2.2-1.4-3.4c0-0.1,0.1-0.2,0.1-0.3h-3.9
		c0,0.1,0,0.2,0,0.3c0,1.5-0.6,3-1.7,4.1c-0.9,0.9-2.1,1.5-3.3,1.6c0.2,0.1,0.3,0.2,0.5,0.4c1.3,1.3,2,3,2,4.8s-0.7,3.4-2,4.8
		c-0.6,0.6-1.4,1.1-2.2,1.5c1,1.3,1.5,2.8,1.6,4.3c0.1-1.6,0.7-3.2,1.9-4.5c1.2-1.2,2.7-1.8,4.3-1.9c0,0-0.1,0-0.1-0.1
		c-1.1-1.1-1.7-2.6-1.7-4.1s0.6-3,1.7-4.1s2.6-1.7,4.1-1.7c1.5,0,3,0.6,4.1,1.7s1.7,2.6,1.7,4.1s-0.6,3-1.7,4.1
		c-0.9,0.9-2.1,1.5-3.3,1.6c0.2,0.1,0.3,0.2,0.5,0.4c1.3,1.3,2,3,2,4.8s-0.7,3.4-2,4.8c-0.6,0.6-1.4,1.1-2.2,1.5
		c1,1.3,1.5,2.8,1.6,4.3c0.1-1.6,0.7-3.2,1.9-4.5c1.2-1.2,2.7-1.8,4.3-1.9c0,0-0.1,0-0.1-0.1c-1.1-1.1-1.7-2.6-1.7-4.1
		c0-1.5,0.6-3,1.7-4.1s2.6-1.7,4.1-1.7s3,0.6,4.1,1.7s1.7,2.6,1.7,4.1c0,1.5-0.6,3-1.7,4.1c-0.9,0.9-2.1,1.5-3.3,1.6
		c0.2,0.1,0.3,0.2,0.5,0.4h0c1.3,1.3,2,3,2,4.8c0,1.7-0.7,3.4-2,4.8h0c-0.6,0.6-1.4,1.1-2.2,1.5c1,1.3,1.5,2.8,1.6,4.3
		c0.1-1.6,0.7-3.2,1.9-4.5c1.2-1.2,2.7-1.8,4.3-1.9c0,0-0.1,0-0.1-0.1c-1.1-1.1-1.7-2.6-1.7-4.1c0-1.5,0.6-3,1.7-4.1
		c1.1-1.1,2.6-1.7,4.1-1.7s3,0.6,4.1,1.7c1.1,1.1,1.7,2.6,1.7,4.1c0,1.5-0.6,3-1.7,4.1c-0.9,0.9-2.1,1.5-3.3,1.6
		c0.2,0.1,0.3,0.2,0.5,0.4c1.3,1.3,2,3,2,4.8c0,1.7-0.7,3.4-2,4.8c-0.6,0.6-1.4,1.1-2.2,1.5c1,1.3,1.5,2.8,1.6,4.3h0
		c0.1-1.6,0.7-3.2,1.9-4.4c1.2-1.2,2.7-1.8,4.3-1.9c0,0-0.1,0-0.1-0.1v0c-1.1-1.1-1.7-2.6-1.7-4.1c0-1.5,0.6-3,1.7-4.1
		s2.6-1.7,4.1-1.7c1.5,0,3,0.6,4.1,1.7s1.7,2.6,1.7,4.1c0,1.5-0.6,3-1.7,4.1v0c-0.9,0.9-2.1,1.5-3.3,1.6c0.2,0.1,0.3,0.2,0.5,0.4
		c1.2,1.2,1.9,2.8,1.9,4.4h1.9c0.1-1.4,0.6-2.7,1.7-3.8c1.1-1.1,2.6-1.7,4.1-1.7c1.5,0,3,0.6,4.1,1.7c1,1,1.6,2.4,1.7,3.8h3.9
		c0.1-1.1,0.5-2.2,1.4-3.1c0.9-0.9,2.2-1.4,3.4-1.4c1.2,0,2.5,0.5,3.4,1.4c0.9,0.9,1.3,2,1.4,3.1h5.8c0.1-0.9,0.4-1.7,1.1-2.4
		c0.7-0.7,1.7-1.1,2.7-1.1c1,0,2,0.4,2.7,1.1c0.7,0.7,1,1.5,1.1,2.4h7.7c0.1-0.6,0.3-1.3,0.8-1.7c0.6-0.6,1.3-0.9,2-0.9
		s1.5,0.3,2,0.9c0.5,0.5,0.7,1.1,0.8,1.7h9.6c0.1-0.4,0.2-0.8,0.5-1.1c0.4-0.4,0.9-0.6,1.4-0.6c0.5,0,1,0.2,1.4,0.6
		c0.3,0.3,0.4,0.7,0.5,1.1h11.6c0-0.1,0.1-0.3,0.2-0.4c0.2-0.2,0.4-0.3,0.7-0.3c0.2,0,0.5,0.1,0.7,0.3c0.1,0.1,0.1,0.2,0.2,0.4h38.5
		v150.6v250.8L332.4,330.2l125.4-125.4L253,0H0v512h0h136.9h13.7l143.5-143.5l89.3,89.3h-66.5c0,0.2-0.1,0.5-0.3,0.6
		c-0.2,0.2-0.4,0.3-0.7,0.3c-0.2,0-0.5-0.1-0.7-0.3c-0.2-0.2-0.3-0.4-0.3-0.6h-11.5c0,0.5-0.2,1-0.6,1.3c-0.4,0.4-0.9,0.6-1.4,0.6
		c-0.5,0-1-0.2-1.4-0.6c-0.4-0.4-0.6-0.8-0.6-1.3h-9.5c0,0.7-0.3,1.4-0.8,2c-0.6,0.6-1.3,0.9-2,0.9s-1.5-0.3-2-0.9
		c-0.6-0.6-0.8-1.3-0.8-2h-7.6c0,1-0.4,1.9-1.1,2.7c-0.7,0.7-1.7,1.1-2.7,1.1c-1,0-2-0.4-2.7-1.1c-0.7-0.7-1.1-1.7-1.1-2.7h-5.7
		c0,1.2-0.5,2.4-1.4,3.4c-0.9,0.9-2.2,1.4-3.4,1.4c-1.2,0-2.5-0.5-3.4-1.4c-0.9-0.9-1.4-2.1-1.4-3.4H250c0,1.5-0.6,2.9-1.7,4
		c-1.1,1.1-2.6,1.7-4.1,1.7c-1.5,0-3-0.6-4.1-1.7c-1.1-1.1-1.7-2.6-1.7-4h-1.9c0,1.7-0.7,3.4-2,4.7c-0.1,0.1-0.3,0.3-0.5,0.4
		c1.2,0.2,2.4,0.7,3.3,1.6h0c1.1,1.1,1.7,2.6,1.7,4.1c0,1.5-0.6,3-1.7,4.1c-1.1,1.1-2.6,1.7-4.1,1.7c-1.5,0-3-0.6-4.1-1.7
		s-1.7-2.6-1.7-4.1c0-1.5,0.6-3,1.7-4.1c0,0,0.1,0,0.1-0.1c-1.6-0.1-3.1-0.7-4.3-1.9c-1.2-1.2-1.9-2.9-1.9-4.5
		c-0.1,1.5-0.6,3.1-1.6,4.3c0.8,0.3,1.6,0.8,2.2,1.5c1.3,1.3,2,3,2,4.8c0,1.7-0.7,3.4-2,4.8c-0.1,0.1-0.3,0.3-0.5,0.4
		c1.2,0.2,2.4,0.7,3.3,1.6c1.1,1.1,1.7,2.6,1.7,4.1c0,1.5-0.6,3-1.7,4.1c-1.1,1.1-2.6,1.7-4.1,1.7c-1.5,0-3-0.6-4.1-1.7
		c-1.1-1.1-1.7-2.6-1.7-4.1c0-1.5,0.6-3,1.7-4.1c0,0,0.1,0,0.1-0.1c-1.6-0.1-3.1-0.7-4.3-1.9c-1.2-1.2-1.9-2.9-1.9-4.5
		c-0.1,1.5-0.6,3.1-1.6,4.3c0.8,0.3,1.6,0.8,2.2,1.5c1.3,1.3,2,3,2,4.8s-0.7,3.4-2,4.8c-0.1,0.1-0.3,0.3-0.5,0.4
		c1.2,0.2,2.4,0.7,3.3,1.6c1.1,1.1,1.7,2.6,1.7,4.1c0,1.5-0.6,3-1.7,4.1c-1.1,1.1-2.6,1.7-4.1,1.7c-1.5,0-3-0.6-4.1-1.7
		c-1.1-1.1-1.7-2.6-1.7-4.1c0-1.5,0.6-3,1.7-4.1c0,0,0.1,0,0.1-0.1c-1.6-0.1-3.1-0.7-4.3-1.9c-1.2-1.2-1.9-2.9-1.9-4.5
		c-0.1,1.5-0.6,3.1-1.6,4.3c0.8,0.3,1.6,0.8,2.2,1.5c1.3,1.3,2,3,2,4.8c0,1.7-0.7,3.4-2,4.8l0,0c-0.1,0.1-0.3,0.3-0.5,0.4
		c1.2,0.2,2.4,0.7,3.3,1.6c1.1,1.1,1.7,2.6,1.7,4.1c0,1.5-0.6,3-1.7,4.1c-1.1,1.1-2.6,1.7-4.1,1.7c-1.5,0-3-0.6-4.1-1.7
		c-1.1-1.1-1.7-2.6-1.7-4.1c0-1.5,0.6-3,1.7-4.1c0,0,0.1,0,0.1-0.1c-1.6-0.1-3.1-0.7-4.3-1.9v0c-1.2-1.2-1.9-2.9-1.9-4.5
		c-0.1,1.5-0.6,3.1-1.6,4.3c0.8,0.3,1.6,0.8,2.2,1.5c1.3,1.3,2,3,2,4.8c0,1.7-0.7,3.4-2,4.8c-0.1,0.1-0.3,0.3-0.5,0.4
		c1.2,0.2,2.4,0.7,3.3,1.6c1.1,1.1,1.7,2.6,1.7,4.1c0,0,0,0,0,0h3.8c0,0,0,0,0,0c0-1.2,0.5-2.5,1.4-3.4h0c0.9-0.9,2.2-1.4,3.4-1.4
		c1.2,0,2.5,0.5,3.4,1.4s1.4,2.2,1.4,3.4c0,0,0,0,0,0h5.7c0,0,0,0,0,0c0-1,0.4-2,1.1-2.7c0.7-0.7,1.7-1.1,2.7-1.1s2,0.4,2.7,1.1h0
		c0.7,0.7,1.1,1.7,1.1,2.7c0,0,0,0,0,0h7.6c0,0,0,0,0,0c0-0.7,0.3-1.5,0.9-2c0.6-0.6,1.3-0.9,2-0.9c0.7,0,1.5,0.3,2,0.9
		c0.6,0.6,0.9,1.3,0.9,2c0,0,0,0,0,0h9.5c0,0,0,0,0,0c0-0.5,0.2-1,0.6-1.4c0.4-0.4,0.9-0.6,1.4-0.6c0.5,0,1,0.2,1.4,0.6
		c0.4,0.4,0.6,0.9,0.6,1.4c0,0,0,0,0,0h11.5c0,0,0,0,0,0c0-0.2,0.1-0.5,0.3-0.7c0.2-0.2,0.4-0.3,0.7-0.3c0.2,0,0.5,0.1,0.7,0.3
		c0.2,0.2,0.3,0.4,0.3,0.7c0,0,0,0,0,0H512V0H365.3z M378.8,0.3L378.8,0.3L378.8,0.3L378.8,0.3L378.8,0.3L378.8,0.3L378.8,0.3
		L378.8,0.3L378.8,0.3z M359.5,9.8c0.4-0.4,0.9-0.6,1.4-0.6c0.5,0,1,0.2,1.4,0.6c0.4,0.4,0.6,0.9,0.6,1.4c0,0.5-0.2,1-0.6,1.4
		c-0.4,0.4-0.9,0.6-1.4,0.6c-0.5,0-1-0.2-1.4-0.6c-0.4-0.4-0.6-0.9-0.6-1.4C359,10.7,359.2,10.2,359.5,9.8z M344.5,9.1
		c0.6-0.6,1.3-0.9,2-0.9c0.7,0,1.5,0.3,2,0.9c0.6,0.6,0.9,1.3,0.9,2c0,0.7-0.3,1.5-0.9,2c-0.6,0.6-1.3,0.9-2,0.9
		c-0.7,0-1.5-0.3-2-0.9c-0.6-0.6-0.9-1.3-0.9-2C343.7,10.4,343.9,9.7,344.5,9.1z M340.3,19.3c0.7-0.7,1.7-1.1,2.7-1.1
		c1,0,2,0.4,2.7,1.1c0.7,0.7,1.1,1.7,1.1,2.7s-0.4,2-1.1,2.7c-0.7,0.7-1.7,1.1-2.7,1.1c-1,0-2-0.4-2.7-1.1c-0.7-0.7-1.1-1.7-1.1-2.7
		S339.5,20,340.3,19.3z M329.5,8.4c0.7-0.7,1.7-1.1,2.7-1.1c1,0,2,0.4,2.7,1.1c0.7,0.7,1.1,1.7,1.1,2.7s-0.4,2-1.1,2.7h0
		c-0.7,0.7-1.7,1.1-2.7,1.1c-1,0-2-0.4-2.7-1.1c-0.7-0.7-1.1-1.7-1.1-2.7S328.7,9.2,329.5,8.4z M321.3,14.5
		c-0.9,0.9-2.2,1.4-3.4,1.4c-1.2,0-2.5-0.5-3.4-1.4h0c-0.9-0.9-1.4-2.2-1.4-3.4s0.5-2.5,1.4-3.4c0.9-0.9,2.2-1.4,3.4-1.4
		c1.2,0,2.5,0.5,3.4,1.4c0.9,0.9,1.4,2.2,1.4,3.4C322.7,12.4,322.2,13.6,321.3,14.5z M332.1,25.4c-0.9,0.9-2.2,1.4-3.4,1.4
		c-1.2,0-2.5-0.5-3.4-1.4c-0.9-0.9-1.4-2.2-1.4-3.4c0-1.2,0.5-2.5,1.4-3.4c0.9-0.9,2.2-1.4,3.4-1.4c1.2,0,2.5,0.5,3.4,1.4
		c0.9,0.9,1.4,2.2,1.4,3.4C333.5,23.2,333,24.4,332.1,25.4z M342.9,36.2c-0.9,0.9-2.2,1.4-3.4,1.4c-1.2,0-2.5-0.5-3.4-1.4
		c-0.9-0.9-1.4-2.2-1.4-3.4c0-1.2,0.5-2.5,1.4-3.4c0.9-0.9,2.2-1.4,3.4-1.4c1.2,0,2.5,0.5,3.4,1.4c0.9,0.9,1.4,2.2,1.4,3.4
		C344.3,34.1,343.8,35.3,342.9,36.2z M353.7,47.1c-0.9,0.9-2.2,1.4-3.4,1.4c-1.2,0-2.5-0.5-3.4-1.4c-0.9-0.9-1.4-2.2-1.4-3.4
		c0-1.2,0.5-2.5,1.4-3.4s2.2-1.4,3.4-1.4c1.2,0,2.5,0.5,3.4,1.4s1.4,2.2,1.4,3.4C355.1,44.9,354.6,46.1,353.7,47.1z M356.5,35.5
		c-0.7,0.7-1.7,1.1-2.7,1.1c-1,0-2-0.4-2.7-1.1c-0.7-0.7-1.1-1.7-1.1-2.7c0-1,0.4-2,1.1-2.7c0.7-0.7,1.7-1.1,2.7-1.1
		c1,0,2,0.4,2.7,1.1c0.7,0.7,1.1,1.7,1.1,2.7C357.7,33.8,357.3,34.8,356.5,35.5z M359.4,24c-0.6,0.6-1.3,0.9-2,0.9s-1.5-0.3-2-0.9
		c-0.6-0.6-0.9-1.3-0.9-2c0-0.7,0.3-1.5,0.9-2c0.6-0.6,1.3-0.9,2-0.9s1.5,0.3,2,0.9c0.6,0.6,0.9,1.3,0.9,2
		C360.3,22.7,360,23.5,359.4,24z M367.4,46.4c-0.7,0.7-1.7,1.1-2.7,1.1s-2-0.4-2.7-1.1c-0.7-0.7-1.1-1.7-1.1-2.7s0.4-2,1.1-2.7
		c0.7-0.7,1.7-1.1,2.7-1.1s2,0.4,2.7,1.1c0.7,0.7,1.1,1.7,1.1,2.7S368.1,45.6,367.4,46.4z M370.2,34.9c-0.6,0.6-1.3,0.9-2,0.9
		s-1.5-0.3-2-0.9c-0.6-0.6-0.9-1.3-0.9-2c0-0.7,0.3-1.5,0.9-2c0.6-0.6,1.3-0.9,2-0.9s1.5,0.3,2,0.9c0.6,0.6,0.9,1.3,0.9,2
		C371.1,33.6,370.8,34.3,370.2,34.9z M373.1,23.4c-0.4,0.4-0.9,0.6-1.4,0.6c-0.5,0-1-0.2-1.4-0.6c-0.4-0.4-0.6-0.9-0.6-1.4
		c0-0.5,0.2-1,0.6-1.4c0.4-0.4,0.9-0.6,1.4-0.6c0.5,0,1,0.2,1.4,0.6c0.4,0.4,0.6,0.9,0.6,1.4C373.7,22.5,373.5,23,373.1,23.4z
		 M375.3,12.1c-0.2,0-0.5-0.1-0.7-0.3c-0.2-0.2-0.3-0.4-0.3-0.7c0-0.2,0.1-0.5,0.3-0.7s0.4-0.3,0.7-0.3s0.5,0.1,0.7,0.3
		s0.3,0.4,0.3,0.7c0,0.2-0.1,0.5-0.3,0.7C375.8,12,375.5,12.1,375.3,12.1z M381,45.7c-0.6,0.6-1.3,0.9-2,0.9s-1.5-0.3-2-0.9
		c-0.6-0.6-0.9-1.3-0.9-2s0.3-1.5,0.9-2c0.6-0.6,1.3-0.9,2-0.9s1.5,0.3,2,0.9c0.6,0.6,0.9,1.3,0.9,2S381.6,45.1,381,45.7z
		 M383.9,34.2c-0.4,0.4-0.9,0.6-1.4,0.6c-0.5,0-1-0.2-1.4-0.6c-0.4-0.4-0.6-0.9-0.6-1.4c0-0.5,0.2-1,0.6-1.4
		c0.4-0.4,0.9-0.6,1.4-0.6c0.5,0,1,0.2,1.4,0.6c0.4,0.4,0.6,0.9,0.6,1.4C384.5,33.3,384.3,33.8,383.9,34.2z M386.8,22.7
		c-0.2,0.2-0.4,0.3-0.7,0.3c-0.2,0-0.5-0.1-0.7-0.3c-0.2-0.2-0.3-0.4-0.3-0.7c0-0.2,0.1-0.5,0.3-0.7c0.2-0.2,0.4-0.3,0.7-0.3
		c0.2,0,0.5,0.1,0.7,0.3s0.3,0.4,0.3,0.7C387.1,22.2,386.9,22.5,386.8,22.7z M389.6,11.2L389.6,11.2L389.6,11.2L389.6,11.2
		L389.6,11.2L389.6,11.2L389.6,11.2L389.6,11.2L389.6,11.2z M394.7,45c-0.4,0.4-0.9,0.6-1.4,0.6c-0.5,0-1-0.2-1.4-0.6
		c-0.4-0.4-0.6-0.9-0.6-1.4c0-0.5,0.2-1,0.6-1.4c0.4-0.4,0.9-0.6,1.4-0.6c0.5,0,1,0.2,1.4,0.6c0.4,0.4,0.6,0.9,0.6,1.4
		C395.3,44.2,395.1,44.7,394.7,45z M397.6,33.5c-0.2,0.2-0.4,0.3-0.7,0.3c-0.2,0-0.5-0.1-0.7-0.3c-0.2-0.2-0.3-0.4-0.3-0.7
		s0.1-0.5,0.3-0.7c0.2-0.2,0.4-0.3,0.7-0.3c0.2,0,0.5,0.1,0.7,0.3c0.2,0.2,0.3,0.4,0.3,0.7S397.8,33.3,397.6,33.5z M400.4,22
		L400.4,22L400.4,22L400.4,22L400.4,22L400.4,22L400.4,22L400.4,22L400.4,22z M408.4,44.4c-0.2,0.2-0.4,0.3-0.7,0.3
		c-0.2,0-0.5-0.1-0.7-0.3c-0.2-0.2-0.3-0.4-0.3-0.7c0-0.2,0.1-0.5,0.3-0.7c0.2-0.2,0.4-0.3,0.7-0.3c0.2,0,0.5,0.1,0.7,0.3
		c0.2,0.2,0.3,0.4,0.3,0.7C408.7,43.9,408.6,44.2,408.4,44.4z M411.2,32.8L411.2,32.8L411.2,32.8L411.2,32.8L411.2,32.8L411.2,32.8
		L411.2,32.8L411.2,32.8L411.2,32.8z M422.1,43.7L422.1,43.7L422.1,43.7L422.1,43.7L422.1,43.7L422.1,43.7L422.1,43.7L422.1,43.7
		L422.1,43.7z M54.2,457.8V54.2h176.4l150.6,150.6l-253,253H54.2z M244.3,465.2c0.9-0.9,2.2-1.4,3.4-1.4c1.2,0,2.5,0.5,3.4,1.4
		s1.4,2.2,1.4,3.4c0,1.2-0.5,2.5-1.4,3.4s-2.2,1.4-3.4,1.4c-1.2,0-2.5-0.5-3.4-1.4s-1.4-2.2-1.4-3.4
		C242.9,467.4,243.4,466.1,244.3,465.2z M218.7,504.5c-0.9,0.9-2.2,1.4-3.4,1.4c-1.2,0-2.5-0.5-3.4-1.4s-1.4-2.2-1.4-3.4
		c0-1.2,0.5-2.5,1.4-3.4c0.9-0.9,2.2-1.4,3.4-1.4c1.2,0,2.5,0.5,3.4,1.4c0.9,0.9,1.4,2.2,1.4,3.4S219.6,503.6,218.7,504.5z
		 M221.3,490.3c0-1.2,0.5-2.5,1.4-3.4s2.2-1.4,3.4-1.4c1.2,0,2.5,0.5,3.4,1.4s1.4,2.2,1.4,3.4c0,1.2-0.5,2.5-1.4,3.4
		s-2.2,1.4-3.4,1.4c-1.2,0-2.5-0.5-3.4-1.4S221.3,491.5,221.3,490.3z M232.4,503.8c-0.7,0.7-1.7,1.1-2.7,1.1c-1,0-2-0.4-2.7-1.1
		c-0.7-0.7-1.1-1.7-1.1-2.7c0-1,0.4-2,1.1-2.7c0.7-0.7,1.7-1.1,2.7-1.1c1,0,2,0.4,2.7,1.1c0.7,0.7,1.1,1.7,1.1,2.7
		C233.5,502.1,233.1,503.1,232.4,503.8z M233.5,482.8c-0.9-0.9-1.4-2.2-1.4-3.4c0-1.2,0.5-2.5,1.4-3.4s2.2-1.4,3.4-1.4
		c1.2,0,2.5,0.5,3.4,1.4s1.4,2.2,1.4,3.4c0,1.2-0.5,2.5-1.4,3.4c-0.9,0.9-2.2,1.4-3.4,1.4C235.7,484.3,234.5,483.8,233.5,482.8z
		 M237.8,493c-0.7-0.7-1.1-1.7-1.1-2.7c0-1,0.4-2,1.1-2.7c0.7-0.7,1.7-1.1,2.7-1.1c1,0,2,0.4,2.7,1.1c0.7,0.7,1.1,1.7,1.1,2.7
		c0,1-0.4,2-1.1,2.7c-0.7,0.7-1.7,1.1-2.7,1.1C239.5,494.1,238.5,493.8,237.8,493z M246.1,503.2c-0.6,0.6-1.3,0.9-2,0.9
		s-1.5-0.3-2-0.9c-0.6-0.6-0.9-1.3-0.9-2c0-0.7,0.3-1.5,0.9-2c0.6-0.6,1.3-0.9,2-0.9s1.5,0.3,2,0.9c0.6,0.6,0.9,1.3,0.9,2
		C246.9,501.9,246.6,502.6,246.1,503.2z M248.6,482.2c-0.7-0.7-1.1-1.7-1.1-2.7c0-1,0.4-2,1.1-2.7c0.7-0.7,1.7-1.1,2.7-1.1
		c1,0,2,0.4,2.7,1.1c0.7,0.7,1.1,1.7,1.1,2.7c0,1-0.4,2-1.1,2.7c-0.7,0.7-1.7,1.1-2.7,1.1C250.3,483.3,249.3,482.9,248.6,482.2z
		 M252.8,492.3c-0.6-0.6-0.9-1.3-0.9-2s0.3-1.5,0.9-2c0.6-0.6,1.3-0.9,2-0.9c0.7,0,1.5,0.3,2,0.9c0.6,0.6,0.9,1.3,0.9,2
		s-0.3,1.5-0.9,2c-0.6,0.6-1.3,0.9-2,0.9C254.1,493.2,253.3,492.9,252.8,492.3z M259.7,502.5c-0.4,0.4-0.9,0.6-1.4,0.6
		c-0.5,0-1-0.2-1.4-0.6c-0.4-0.4-0.6-0.9-0.6-1.4c0-0.5,0.2-1,0.6-1.4c0.4-0.4,0.9-0.6,1.4-0.6c0.5,0,1,0.2,1.4,0.6
		c0.4,0.4,0.6,0.9,0.6,1.4C260.3,501.6,260.1,502.1,259.7,502.5z M262.1,472.5c-1,0-2-0.4-2.7-1.1c-0.7-0.7-1.1-1.7-1.1-2.7
		c0-1,0.4-2,1.1-2.7c0.7-0.7,1.7-1.1,2.7-1.1c1,0,2,0.4,2.7,1.1c0.7,0.7,1.1,1.7,1.1,2.7c0,1-0.4,2-1.1,2.7
		C264.1,472.1,263.1,472.5,262.1,472.5z M263.6,481.5c-0.6-0.6-0.9-1.3-0.9-2c0-0.7,0.3-1.5,0.9-2c0.6-0.6,1.3-0.9,2-0.9
		s1.5,0.3,2,0.9c0.6,0.6,0.9,1.3,0.9,2c0,0.7-0.3,1.5-0.9,2c-0.6,0.6-1.3,0.9-2,0.9S264.1,482,263.6,481.5z M270.5,491.6
		c-0.4,0.4-0.9,0.6-1.4,0.6c-0.5,0-1-0.2-1.4-0.6c-0.4-0.4-0.6-0.9-0.6-1.4c0-0.5,0.2-1,0.6-1.4c0.4-0.4,0.9-0.6,1.4-0.6
		c0.5,0,1,0.2,1.4,0.6c0.4,0.4,0.6,0.9,0.6,1.4C271.1,490.8,270.9,491.3,270.5,491.6z M273.4,501.8c-0.2,0.2-0.4,0.3-0.7,0.3
		c-0.2,0-0.5-0.1-0.7-0.3c-0.2-0.2-0.3-0.4-0.3-0.7c0-0.2,0.1-0.5,0.3-0.7c0.2-0.2,0.4-0.3,0.7-0.3c0.2,0,0.5,0.1,0.7,0.3
		c0.2,0.2,0.3,0.4,0.3,0.7C273.7,501.4,273.6,501.6,273.4,501.8z M276.3,512L276.3,512L276.3,512L276.3,512L276.3,512L276.3,512
		L276.3,512L276.3,512L276.3,512z M274.4,470.7c-0.6-0.6-0.9-1.3-0.9-2c0-0.7,0.3-1.5,0.9-2c0.6-0.6,1.3-0.9,2-0.9s1.5,0.3,2,0.9
		c0.6,0.6,0.9,1.3,0.9,2c0,0.7-0.3,1.5-0.9,2c-0.6,0.6-1.3,0.9-2,0.9S275,471.2,274.4,470.7z M281.4,480.8c-0.4,0.4-0.9,0.6-1.4,0.6
		c-0.5,0-1-0.2-1.4-0.6c-0.4-0.4-0.6-0.9-0.6-1.4c0-0.5,0.2-1,0.6-1.4s0.9-0.6,1.4-0.6c0.5,0,1,0.2,1.4,0.6c0.4,0.4,0.6,0.9,0.6,1.4
		C281.9,479.9,281.7,480.4,281.4,480.8z M284.2,491c-0.2,0.2-0.4,0.3-0.7,0.3c-0.2,0-0.5-0.1-0.7-0.3c-0.2-0.2-0.3-0.4-0.3-0.7
		c0-0.2,0.1-0.5,0.3-0.7c0.2-0.2,0.4-0.3,0.7-0.3c0.2,0,0.5,0.1,0.7,0.3c0.2,0.2,0.3,0.4,0.3,0.7C284.5,490.5,284.4,490.8,284.2,491
		z M287.1,501.1L287.1,501.1L287.1,501.1L287.1,501.1L287.1,501.1L287.1,501.1L287.1,501.1L287.1,501.1L287.1,501.1z M292.2,470
		c-0.4,0.4-0.9,0.6-1.4,0.6c-0.5,0-1-0.2-1.4-0.6c-0.4-0.4-0.6-0.9-0.6-1.4c0-0.5,0.2-1,0.6-1.4c0.4-0.4,0.9-0.6,1.4-0.6
		c0.5,0,1,0.2,1.4,0.6c0.4,0.4,0.6,0.9,0.6,1.4C292.7,469.1,292.5,469.6,292.2,470z M295,480.1c-0.2,0.2-0.4,0.3-0.7,0.3
		c-0.2,0-0.5-0.1-0.7-0.3c-0.2-0.2-0.3-0.4-0.3-0.7c0-0.2,0.1-0.5,0.3-0.7c0.2-0.2,0.4-0.3,0.7-0.3c0.2,0,0.5,0.1,0.7,0.3
		c0.2,0.2,0.3,0.4,0.3,0.7C295.3,479.7,295.2,479.9,295,480.1z M297.9,490.3L297.9,490.3L297.9,490.3L297.9,490.3L297.9,490.3
		L297.9,490.3L297.9,490.3L297.9,490.3L297.9,490.3z M305.8,469.3c-0.2,0.2-0.4,0.3-0.7,0.3c-0.2,0-0.5-0.1-0.7-0.3
		s-0.3-0.4-0.3-0.7c0-0.2,0.1-0.5,0.3-0.7c0.2-0.2,0.4-0.3,0.7-0.3c0.2,0,0.5,0.1,0.7,0.3c0.2,0.2,0.3,0.4,0.3,0.7
		C306.1,468.9,306,469.1,305.8,469.3z M308.7,479.5L308.7,479.5L308.7,479.5L308.7,479.5L308.7,479.5L308.7,479.5L308.7,479.5
		L308.7,479.5L308.7,479.5z M319.5,468.6L319.5,468.6L319.5,468.6L319.5,468.6L319.5,468.6L319.5,468.6L319.5,468.6L319.5,468.6
		L319.5,468.6z"/>
</svg>
